# xmcd
#
# Track frame offsets:
#	150
#	15792
#	40507
#	69340
#	93867
#
# Disc length: 1609 seconds
#
# Revision: 1
# Processed by: cddbd v1.4PL0 Copyright (c) Steve Scherf et al.
# Submitted via: EasyCDDAExtractor 5.0.6
#
DISCID=26064705
DTITLE=Lonnie Gordon - Happenin' All Over Again CD5
DYEAR=1900
DGENRE=Dance
TTITLE0=Happenin' All Over Again(LP Version)
TTITLE1=Happenin' All Over Again(Tony King's Hip Hop Mix)
TTITLE2=Happenin' All Over Again(Jewels And Stone Club Mix)
TTITLE3=Happenin' All Over Again(Jumpin' Johnny Jay's R And B Mix)
TTITLE4=Happenin' All Over Again(PWL's Original Mix-Extended Version)
EXTD=
EXTT0=
EXTT1=
EXTT2=
EXTT3=
EXTT4=
PLAYORDER=
